<svg width="217" height="48" viewBox="0 0 217 48" fill="none" xmlns="http://www.w3.org/2000/svg">
<path fill-rule="evenodd" clip-rule="evenodd" d="M196.986 15.2848V19.2066H197.891V17.8353H198.686C199.07 17.8353 199.207 18.0547 199.207 18.329V18.754C199.207 19.0146 199.221 19.1106 199.276 19.2066H200.208C200.167 19.0969 200.14 18.9872 200.14 18.754V18.233C200.14 17.8079 199.907 17.5336 199.509 17.4788V17.4514C199.934 17.2868 200.195 16.9029 200.195 16.4641C200.195 15.751 199.673 15.2848 198.823 15.2848H196.986ZM198.618 17.1497H197.891V16.039H198.645C199.015 16.039 199.235 16.2447 199.235 16.5875C199.235 16.9577 199.029 17.1497 198.618 17.1497Z" fill="#023C52"/>
<path fill-rule="evenodd" clip-rule="evenodd" d="M194.339 17.3142C194.339 19.6591 196.067 21.332 198.467 21.332C200.866 21.332 202.635 19.6591 202.635 17.3142C202.635 14.9968 200.88 13.3239 198.467 13.3239C196.067 13.3239 194.339 14.9968 194.339 17.3142ZM201.689 17.3417C201.689 19.1928 200.359 20.4681 198.48 20.4681C196.602 20.4681 195.285 19.1928 195.285 17.3554C195.285 15.5042 196.588 14.1741 198.48 14.1741C200.386 14.1741 201.689 15.4768 201.689 17.3417Z" fill="#023C52"/>
<path d="M66.4804 13.381V31.4358H68.8116V13.381H66.4804Z" fill="#023C52"/>
<path d="M31.8388 29.4246C31.8388 30.8416 32.753 31.5958 34.467 31.5958C34.947 31.5958 35.5183 31.55 36.204 31.4129V29.5389C35.9526 29.6074 35.6555 29.6303 35.1984 29.6303C34.3528 29.6303 34.1242 29.4018 34.1242 28.4647V20.3973H36.204V18.5689H34.1242V14.7523L31.8388 14.9808V18.5689H30.1248V20.3973H31.8388V29.4246Z" fill="#023C52"/>
<path d="M14.259 14.7751V25.4937C14.259 29.4475 16.9101 31.6643 21.1838 31.6643C25.7318 31.6643 28.1543 29.1961 28.1543 25.4937V14.7751H25.7775V25.3109C25.7775 27.8477 24.452 29.4703 21.2295 29.4703C18.487 29.4703 16.6587 28.3048 16.6587 25.3109V14.7751H14.259Z" fill="#023C52"/>
<path d="M41.658 31.5958C39.944 31.5958 39.0298 30.8416 39.0298 29.4246V20.3973H37.3158V18.5689H39.0298V14.9808L41.3152 14.7523V18.5689H43.395V20.3973H41.3152V28.4647C41.3152 29.4018 41.5438 29.6303 42.3894 29.6303C42.8465 29.6303 43.1436 29.6074 43.395 29.5389V31.4129C42.7093 31.55 42.138 31.5958 41.658 31.5958Z" fill="#023C52"/>
<path fill-rule="evenodd" clip-rule="evenodd" d="M44.561 25.0138C44.561 29.2189 47.0064 31.6643 50.7088 31.6643C53.657 31.6643 55.7138 30.1102 56.1709 27.7791L54.0912 27.2992C53.8169 28.8304 52.6057 29.7217 50.7316 29.7217C48.4234 29.7217 47.0521 28.3733 46.8922 25.5851H56.3309C56.628 20.7401 54.2512 18.3404 50.6174 18.3404C46.7779 18.3404 44.561 20.9915 44.561 25.0138ZM46.9379 23.8254C47.2578 21.2657 48.6748 20.1916 50.5717 20.1916C52.7428 20.1916 53.9769 21.6314 53.9312 23.8254H46.9379Z" fill="#023C52"/>
<path d="M58.3967 31.4358V18.5689H60.4993L60.6364 20.4658C61.2992 19.1631 62.3733 18.4318 63.7445 18.4318C64.2016 18.4318 64.5673 18.4775 64.7958 18.5689V20.7858H64.6359C64.3845 20.6944 64.0417 20.6486 63.7445 20.6486C62.0076 20.6486 60.9106 21.7914 60.7507 23.5968V31.4358H58.3967Z" fill="#023C52"/>
<path d="M72.8703 35.4352C72.4132 35.4352 71.7504 35.3438 71.3848 35.2067V33.287H71.5676C71.7733 33.3784 72.0704 33.4469 72.4132 33.4469C73.5102 33.4469 74.1273 33.0127 74.4929 32.0528L74.9272 30.9558L70.0821 18.5689H72.6189L74.7672 24.5795C75.0186 25.288 75.6585 27.0935 76.1384 28.7847C76.6184 27.1392 76.9383 26.2022 77.5325 24.5795L79.7037 18.5689H82.0348L76.7098 32.5556C75.8642 34.7953 74.5843 35.4352 72.8703 35.4352Z" fill="#023C52"/>
<path d="M87.7695 23.094C87.7695 28.2362 90.512 31.6643 95.4028 31.6643C99.3109 31.6643 102.19 29.5846 102.693 25.9051L100.294 25.6308C99.8822 27.9391 98.2824 29.4703 95.4714 29.4703C92.3632 29.4703 90.2835 27.4363 90.2835 23.094C90.2835 19.2774 91.9519 16.7406 95.4942 16.7406C97.9396 16.7406 99.7679 17.9519 100.225 20.5572L102.67 20.2144C102.19 16.832 99.5851 14.5695 95.5171 14.5695C90.8777 14.5695 87.7695 17.6319 87.7695 23.094Z" fill="#023C52"/>
<path d="M107.657 24.4367C106.011 24.4367 104.663 22.8655 104.663 21.1971C104.663 19.5517 106.011 18.3404 107.657 18.3404C109.302 18.3404 110.989 19.5517 110.989 21.1971C110.989 22.8426 109.302 24.4367 107.657 24.4367Z" fill="#023C52"/>
<path d="M115.496 24.4367C113.85 24.4367 112.146 22.8655 112.146 21.1971C112.146 19.5517 113.827 18.3404 115.496 18.3404C117.118 18.3404 118.444 19.5517 118.444 21.1971C118.444 22.8655 117.118 24.4367 115.496 24.4367Z" fill="#023C52"/>
<path d="M107.657 31.6643C106.011 31.6643 104.663 30.4302 104.663 28.7618C104.663 27.1164 106.011 25.5508 107.657 25.5508C109.302 25.5508 110.989 27.1392 110.989 28.7618C110.989 30.4302 109.302 31.6643 107.657 31.6643Z" fill="#023C52"/>
<path d="M115.496 31.6643C113.85 31.6643 112.146 30.4302 112.146 28.7618C112.146 27.1164 113.85 25.5508 115.496 25.5508C117.118 25.5508 118.444 27.1164 118.444 28.7618C118.444 30.4302 117.118 31.6643 115.496 31.6643Z" fill="#023C52"/>
<path d="M121.295 18.5689V31.4358H123.648V23.9396C123.648 21.9285 124.951 20.443 126.894 20.443C128.608 20.443 129.362 21.6085 129.362 23.3226V31.4358H131.693V24.0539C131.693 21.8142 133.064 20.443 135.007 20.443C136.584 20.443 137.429 21.4257 137.429 23.1169V31.4358H139.783V22.7284C139.783 20.0773 138.275 18.3404 135.533 18.3404C133.727 18.3404 132.105 19.2774 131.327 20.9686C130.688 19.2317 129.225 18.3404 127.465 18.3404C125.888 18.3404 124.426 19.0717 123.58 20.6258L123.42 18.5689H121.295Z" fill="#023C52"/>
<path fill-rule="evenodd" clip-rule="evenodd" d="M142.747 35.2524V18.5689H144.895L145.055 20.7629C145.787 19.2317 147.386 18.3404 149.352 18.3404C152.757 18.3404 154.883 20.8772 154.883 24.8995C154.883 29.0361 152.689 31.6643 149.306 31.6643C147.478 31.6643 145.924 30.8873 145.078 29.3332V35.2524H142.747ZM145.078 25.6308C145.078 28.0762 146.541 29.6303 148.826 29.6303C151.18 29.6303 152.483 27.9391 152.483 24.8995C152.483 21.997 151.157 20.3515 148.849 20.3515C146.587 20.3515 145.078 21.8828 145.078 24.2596V25.6308Z" fill="#023C52"/>
<path d="M157.147 13.381V31.4358H159.478V13.381H157.147Z" fill="#023C52"/>
<path fill-rule="evenodd" clip-rule="evenodd" d="M167.948 31.6643C164.245 31.6643 161.8 29.2189 161.8 25.0138C161.8 20.9915 164.017 18.3404 167.856 18.3404C171.49 18.3404 173.867 20.7401 173.57 25.5851H164.131C164.291 28.3733 165.662 29.7217 167.97 29.7217C169.844 29.7217 171.056 28.8304 171.33 27.2992L173.41 27.7791C172.953 30.1102 170.896 31.6643 167.948 31.6643ZM167.81 20.1916C165.914 20.1916 164.497 21.2657 164.177 23.8254H171.17C171.216 21.6314 169.982 20.1916 167.81 20.1916Z" fill="#023C52"/>
<path d="M176.163 29.4246C176.163 30.8416 177.077 31.5958 178.791 31.5958C179.271 31.5958 179.843 31.55 180.528 31.4129V29.5389C180.277 29.6074 179.98 29.6303 179.523 29.6303C178.677 29.6303 178.449 29.4018 178.449 28.4647V20.3973H180.528V18.5689H178.449V14.7523L176.163 14.9808V18.5689H174.449V20.3973H176.163V29.4246Z" fill="#023C52"/>
<path fill-rule="evenodd" clip-rule="evenodd" d="M187.842 31.6643C184.14 31.6643 181.694 29.2189 181.694 25.0138C181.694 20.9915 183.911 18.3404 187.751 18.3404C191.385 18.3404 193.761 20.7401 193.464 25.5851H184.026C184.186 28.3733 185.557 29.7217 187.865 29.7217C189.739 29.7217 190.95 28.8304 191.225 27.2992L193.304 27.7791C192.847 30.1102 190.79 31.6643 187.842 31.6643ZM187.705 20.1916C185.808 20.1916 184.391 21.2657 184.071 23.8254H191.065C191.11 21.6314 189.876 20.1916 187.705 20.1916Z" fill="#023C52"/>
</svg>
