<svg width="31" height="30" viewBox="0 0 31 30" fill="none" xmlns="http://www.w3.org/2000/svg">
<path d="M11.657 14.4367C10.0115 14.4367 8.66309 12.8655 8.66309 11.1972C8.66309 9.55166 10.0115 8.34039 11.657 8.34039C13.3025 8.34039 14.9892 9.55166 14.9892 11.1972C14.9892 12.8426 13.3025 14.4367 11.657 14.4367Z" fill="#023C52"/>
<path d="M19.4959 14.4367C17.8504 14.4367 16.1462 12.8655 16.1462 11.1972C16.1462 9.55166 17.8276 8.34039 19.4959 8.34039C21.1186 8.34039 22.4441 9.55166 22.4441 11.1972C22.4441 12.8655 21.1186 14.4367 19.4959 14.4367Z" fill="#023C52"/>
<path d="M11.657 21.6643C10.0115 21.6643 8.66309 20.4302 8.66309 18.7619C8.66309 17.1164 10.0115 15.5509 11.657 15.5509C13.3025 15.5509 14.9892 17.1392 14.9892 18.7619C14.9892 20.4302 13.3025 21.6643 11.657 21.6643Z" fill="#023C52"/>
<path d="M19.4959 21.6643C17.8504 21.6643 16.1462 20.4302 16.1462 18.7619C16.1462 17.1164 17.8504 15.5509 19.4959 15.5509C21.1186 15.5509 22.4441 17.1164 22.4441 18.7619C22.4441 20.4302 21.1186 21.6643 19.4959 21.6643Z" fill="#023C52"/>
</svg>
